<svg preserveAspectRatio="none" width="100%" height="100%" overflow="visible" style="display: block;" viewBox="0 0 16.464 18.1293" fill="none" xmlns="http://www.w3.org/2000/svg">
<g id="Group">
<path id="Vector" d="M1.56534 10.7314C1.40765 10.7319 1.25304 10.6877 1.11947 10.6038C0.985906 10.52 0.878866 10.4 0.810796 10.2577C0.742726 10.1155 0.716416 9.95687 0.734926 9.80017C0.753426 9.64357 0.815986 9.49547 0.915336 9.37297L9.16531 0.873001C9.22721 0.801571 9.31151 0.7533 9.40451 0.73611C9.49741 0.71893 9.59341 0.73385 9.67681 0.77842C9.76011 0.823 9.82581 0.89458 9.86311 0.98143C9.90041 1.06827 9.90711 1.16521 9.88201 1.25634L8.28201 6.273C8.23481 6.39927 8.21899 6.5351 8.23581 6.66884C8.25271 6.80258 8.30171 6.93024 8.37871 7.04086C8.45581 7.15148 8.55851 7.24177 8.67811 7.30397C8.79761 7.36618 8.93051 7.39844 9.06531 7.398H14.8987C15.0564 7.39747 15.211 7.44168 15.3445 7.52552C15.4781 7.60936 15.5851 7.72937 15.6532 7.87162C15.7213 8.01387 15.7476 8.17251 15.7291 8.32912C15.7106 8.48573 15.648 8.63387 15.5487 8.75634L7.29868 17.2564C7.23679 17.3278 7.15246 17.3761 7.05953 17.3933C6.96659 17.4104 6.87057 17.3955 6.78724 17.3509C6.7039 17.3064 6.63819 17.2348 6.6009 17.1479C6.56361 17.0611 6.55695 16.9642 6.58201 16.873L8.18201 11.8564C8.22919 11.7301 8.24501 11.5943 8.22818 11.4605C8.21133 11.3268 8.16229 11.1991 8.08527 11.0885C8.00824 10.9779 7.90553 10.8876 7.78595 10.8254C7.66636 10.7632 7.53347 10.7309 7.39868 10.7314H1.56534Z" stroke="var(--stroke-0, #E2E8F0)" stroke-width="1.45833" stroke-linecap="round" stroke-linejoin="round"/>
</g>
</svg>
